<svg width="65" height="65" viewBox="0 0 65 65" fill="none" xmlns="http://www.w3.org/2000/svg">
<g clip-path="url(#clip0_52_63)">
<path d="M56.9525 28.6432C60.3637 28.666 61.4682 27.6999 61.8935 27.0728C63.4766 25.0009 60.9972 21.0298 55.184 18.0172C57.4387 13.7541 59.0066 9.93282 59.7975 7.1881C60.2266 5.68624 59.9359 4.77599 59.8546 4.6173C59.6363 5.95284 57.8424 10.7694 53.7355 17.319C50.5617 15.8945 46.5601 14.7672 41.8311 14.2975C40.6961 12.1469 37.403 6.19024 34.153 3.00753C32.0151 0.906456 30.3038 0.13585 28.9682 0.0279399H28.9619C27.2061 -0.168837 26.0838 0.770616 25.4834 1.42442C23.2998 3.77687 22.3946 7.62862 22.3095 12.0974C21.3904 10.5295 20.1297 8.97052 18.6914 8.80548H18.6685C16.0457 8.36368 13.7948 12.515 14.0982 19.1255C9.22827 19.3007 5.08452 19.8555 2.29155 20.5512C1.03472 20.8622 0.232373 21.4741 0.0368652 21.7852C0.163818 21.7369 2.88061 20.6147 14.1998 20.6147C14.8625 27.3432 17.9766 33.541 17.5005 32.4454C16.2653 34.4005 12.6458 40.3622 11.4944 44.8487C10.7492 47.7534 10.9396 49.6234 11.5134 50.8333C12.2206 52.452 13.5967 52.956 14.4587 53.1515C17.6326 53.8764 21.4894 52.6906 25.4656 50.4677C24.5096 52.0978 23.7009 54.0871 24.3154 55.462C25.2434 57.9566 29.9635 57.831 35.5431 54.2623C38.105 58.3477 40.6301 61.618 42.6144 63.6721C42.9401 64.0233 43.3142 64.3263 43.7252 64.5722C44.3778 64.9797 44.8145 65 44.8145 65C43.7684 64.1431 40.4981 60.1758 36.8749 53.3483C39.6958 51.317 42.6703 48.4136 45.4404 44.5542C61.0328 45.1382 63.6315 41.4109 64.2294 40.5374C66.0918 38.0136 64.6649 33.2452 56.9525 28.6432ZM47.0692 42.1281C50.0919 37.3407 50.9209 33.5245 50.808 30.4066C54.3449 32.6371 56.7976 35.1775 57.0363 37.8752C57.181 39.5167 56.008 41.5721 47.0692 42.1281ZM27.5362 49.2185C28.7752 48.4275 30.0156 47.5528 31.2432 46.6172C32.0913 48.3095 32.9698 49.9307 33.8584 51.4655C28.7042 54.2407 25.119 53.0855 27.5362 49.2185ZM54.8311 27.465C53.5248 26.7871 52.1448 26.1524 50.7204 25.5544C51.7293 24.0221 52.692 22.4599 53.6073 20.8698C58.5661 23.9294 59.4344 27.6212 54.8311 27.465ZM35.4428 50.5274C34.7433 49.0864 34.0463 47.544 33.3481 45.9012C38.8388 46.0624 41.2725 43.5233 41.3817 43.3101C41.3817 43.319 38.2079 45.2956 33.4433 44.8652C37.3327 41.6166 40.9448 38.0496 44.2419 34.2012C45.3473 32.9054 46.4023 31.5889 47.4069 30.2517C47.3612 30.2149 47.2114 29.8708 45.3109 28.7282C38.7474 36.3797 32.3185 41.1696 28.4579 43.4446C25.8439 42.0253 23.2731 39.4101 21.3853 35.6383C18.8462 30.5703 17.5767 25.1786 17.3774 20.9028C18.9389 21.0184 20.5855 21.1783 22.3095 21.3954C19.4797 26.0673 20.4827 29.3935 20.5995 29.5496C20.5995 29.5407 20.4789 25.8464 23.1563 21.987C24.2973 28.6507 26.2001 35.1612 28.8273 41.3905C28.9454 41.3423 29.0609 41.5023 31.1975 40.3432C27.8548 30.889 26.9116 22.8021 26.8811 18.3257C29.4202 16.7489 32.9977 15.812 37.2443 16.0647C42.9026 16.4036 48.208 18.0007 52.0115 19.9634C51.1067 21.2888 50.1194 22.6628 49.0497 24.0856C46.4179 19.2969 43.0499 18.5149 42.8467 18.5352C42.8607 18.5352 46.1348 20.3214 48.1178 24.5299C43.3574 22.7828 38.4595 21.4363 33.475 20.5042C31.8164 20.1969 30.1488 19.9407 28.4744 19.7361C28.4655 19.7933 28.2446 19.971 28.2001 22.3171C38.086 24.1566 45.5483 27.3813 49.4305 29.5801C49.5245 32.5698 48.5482 36.1321 46.2046 39.6817C43.0816 44.4184 39.0457 48.2168 35.4428 50.5274ZM38.9213 14.0918C33.2643 13.8811 29.5801 15.0351 26.9001 16.7159C27.1541 10.0763 29.6055 7.01925 31.751 7.1589C33.8965 6.62062 38.7207 13.7808 38.9213 14.0918ZM22.3349 14.4854C22.3958 16.0228 22.5368 17.6109 22.7424 19.2182C20.8953 19.1103 19.0938 19.0595 17.3596 19.0582C17.3495 19.4695 17.3444 12.5836 20.4916 12.7626H20.503C21.2342 12.901 21.8525 13.636 22.3349 14.4854ZM18.7726 35.0518C21.4082 40.0918 24.2697 42.7413 27.0563 44.2317C21.1162 47.3751 17.2136 46.7708 16.2754 44.8043C16.25 44.7776 14.8625 42.8619 18.7726 35.053V35.0518Z" fill="white"/>
</g>
<defs>
<clipPath id="clip0_52_63">
<rect width="65" height="65" fill="white"/>
</clipPath>
</defs>
</svg>
