<svg width="44" height="44" viewBox="0 0 44 44" fill="none" xmlns="http://www.w3.org/2000/svg">
<path d="M22.613 31.4767C22.613 31.6818 22.6945 31.8786 22.8396 32.0236L24.8299 34.0137C24.9809 34.1647 25.1788 34.2402 25.3767 34.2402C25.5747 34.2402 25.7726 34.1647 25.9237 34.0137L28.0312 31.9062L29.7216 33.5966C29.7217 33.5967 29.7218 33.5969 29.722 33.5971C29.7222 33.5973 29.7223 33.5974 29.7225 33.5975L32.3923 36.2674C32.5529 36.9795 32.9076 37.6246 33.4287 38.1458C34.1596 38.8767 35.1314 39.2791 36.1651 39.2791C37.1987 39.2791 38.1704 38.8766 38.9012 38.1458C40.41 36.637 40.41 34.1821 38.9012 32.6733C38.38 32.1521 37.7346 31.7974 37.0225 31.6369L34.3531 28.9674C34.3528 28.9671 34.3527 28.9669 34.3524 28.9666C34.3521 28.9664 34.3519 28.9662 34.3516 28.9659L32.6615 27.2757L34.7691 25.1681C34.9142 25.023 34.9956 24.8262 34.9956 24.6212C34.9956 24.4161 34.9142 24.2192 34.769 24.0743L32.7787 22.0841C32.4767 21.7821 31.9871 21.7821 31.6849 22.0841L29.7862 23.9828L28.5723 22.3028L37.3352 15.9709C37.517 15.8395 37.633 15.6355 37.6526 15.4119L38.5205 5.56196C38.5406 5.33405 38.4588 5.10898 38.297 4.94716C38.1352 4.78534 37.9099 4.70353 37.6822 4.72364L27.8324 5.59187C27.6088 5.61155 27.4048 5.72739 27.2734 5.90923L21.9999 13.2071L16.7265 5.90923C16.5951 5.72739 16.3911 5.61146 16.1675 5.59187L6.3177 4.72381C6.09005 4.70396 5.86472 4.78551 5.7029 4.94733C5.54117 5.10915 5.45927 5.33423 5.47938 5.56213L6.34735 15.412C6.36703 15.6356 6.48287 15.8397 6.66471 15.9711L15.4276 22.3032L14.2136 23.983L12.3149 22.0843C12.0129 21.7824 11.5233 21.7822 11.221 22.0843L9.23081 24.0744C9.08575 24.2195 9.00428 24.4163 9.00428 24.6213C9.00428 24.8264 9.08575 25.0232 9.23081 25.1683L11.3383 27.2759L6.97718 31.637C6.26511 31.7975 5.61989 32.1521 5.09868 32.6734C4.36778 33.4042 3.96533 34.376 3.96533 35.4097C3.96542 36.4433 4.36795 37.415 5.09868 38.1458C5.82957 38.8767 6.80127 39.2792 7.83493 39.2792C8.8685 39.2792 9.84028 38.8767 10.5712 38.1458C11.0923 37.6246 11.447 36.9793 11.6076 36.2675L15.9688 31.9063L18.0764 34.0138C18.2274 34.1648 18.4253 34.2403 18.6233 34.2403C18.8212 34.2403 19.0191 34.1648 19.1702 34.0138L21.1604 32.0237C21.3055 31.8786 21.3869 31.6818 21.3869 31.4768C21.3869 31.2717 21.3055 31.0749 21.1604 30.9299L19.2617 29.0311L21.9998 27.0525L24.7381 29.0311L22.8394 30.9299C22.6945 31.0749 22.613 31.2716 22.613 31.4767ZM37.8073 37.052C37.3687 37.4907 36.7854 37.7323 36.1651 37.7323C35.5446 37.7323 34.9613 37.4907 34.5226 37.052C34.1721 36.7015 33.9467 36.2578 33.8707 35.7688C33.757 35.0374 34.0008 34.2891 34.5226 33.7672C34.961 33.3289 35.544 33.0875 36.1642 33.0875C36.2844 33.0875 36.4054 33.0969 36.524 33.1153C36.5242 33.1153 36.5243 33.1153 36.5245 33.1154C37.0133 33.1913 37.4571 33.4167 37.8075 33.7672C38.713 34.6729 38.713 36.1463 37.8073 37.052ZM34.9045 31.7502C34.8605 31.7653 34.817 31.7814 34.7738 31.7981C34.7523 31.8064 34.7307 31.8142 34.7094 31.8229C34.6576 31.8439 34.6066 31.8663 34.5558 31.8894C34.5437 31.8949 34.5314 31.8999 34.5194 31.9056C34.4565 31.9351 34.3943 31.9665 34.333 31.9996C34.3191 32.0071 34.3057 32.0152 34.2918 32.0229C34.2451 32.0488 34.1987 32.0753 34.153 32.1033C34.1327 32.1158 34.1125 32.1289 34.0924 32.1417C34.0537 32.1664 34.0154 32.1915 33.9774 32.2176C33.956 32.2323 33.9348 32.2474 33.9138 32.2625C33.8772 32.2887 33.8412 32.3157 33.8054 32.3433C33.785 32.359 33.7646 32.3746 33.7446 32.3908C33.707 32.421 33.6703 32.4522 33.6338 32.4839C33.6169 32.4986 33.5998 32.5127 33.5831 32.5278C33.5306 32.5749 33.479 32.6231 33.4287 32.6734C33.3748 32.7273 33.3227 32.7827 33.2723 32.8396C33.2561 32.8579 33.2412 32.8772 33.2253 32.8957C33.192 32.9348 33.1585 32.9735 33.1268 33.0138C33.1081 33.0375 33.091 33.0622 33.073 33.0864C33.0459 33.1226 33.0181 33.1585 32.9924 33.1956C32.9736 33.2225 32.9566 33.2502 32.9386 33.2775C32.9154 33.313 32.8913 33.348 32.8691 33.3842C32.8514 33.4132 32.8353 33.443 32.8185 33.4722C32.798 33.5078 32.7768 33.543 32.7574 33.5793C32.7411 33.6099 32.7264 33.6413 32.7107 33.6723C32.6928 33.7082 32.6742 33.7437 32.6574 33.7801C32.6425 33.8122 32.6294 33.845 32.6153 33.8775C32.5998 33.9136 32.5836 33.9495 32.5692 33.9861C32.556 34.0195 32.5445 34.0533 32.5323 34.0869C32.5205 34.1194 32.5077 34.1515 32.4968 34.1842L31.3628 33.0502L33.8055 30.6076L34.9364 31.7385C34.9257 31.7421 34.9152 31.7465 34.9045 31.7502ZM32.7117 29.5138L30.269 31.9564L29.1251 30.8125L31.5677 28.3698L32.7117 29.5138ZM28.3203 7.10179L36.8987 6.34571L36.1428 14.9242L27.6664 21.0491L25.8302 18.5079L32.5004 11.8379C32.8024 11.5358 32.8024 11.0461 32.5004 10.744C32.1983 10.4421 31.7087 10.4419 31.4065 10.744L24.9125 17.2379L22.9541 14.5276L28.3203 7.10179ZM7.10128 6.34571L15.6796 7.10179L21.3722 14.9799C21.3725 14.9802 21.3727 14.9806 21.3729 14.981L26.8655 22.5822C26.866 22.5828 26.8665 22.5833 26.8669 22.5839L28.6785 25.0909L27.8093 25.9601L12.5935 10.744C12.2914 10.4421 11.8018 10.4419 11.4996 10.744C11.1975 11.0461 11.1975 11.5358 11.4996 11.8379L26.7153 27.0539L25.846 27.9232L19.1687 23.0981L16.9605 21.5023C16.9601 21.5021 16.9597 21.5018 16.9593 21.5015L7.85718 14.9242L7.10128 6.34571ZM16.6813 23.2091L17.9041 24.0927L17.9934 24.1572L16.1906 25.96L15.3215 25.0909L16.6813 23.2091ZM10.1944 30.6075L12.6371 33.0502L11.5032 34.1841C11.4928 34.1528 11.4804 34.1222 11.4691 34.0912C11.4564 34.056 11.4443 34.0205 11.4305 33.9856C11.4167 33.9505 11.4012 33.916 11.3862 33.8813C11.3717 33.8473 11.3578 33.8131 11.3423 33.7796C11.3261 33.7447 11.3083 33.7106 11.291 33.6762C11.2748 33.6438 11.2594 33.6109 11.2423 33.5789C11.2236 33.5442 11.2032 33.5102 11.1836 33.4761C11.1659 33.4454 11.1491 33.4141 11.1305 33.384C11.1092 33.3492 11.086 33.3154 11.0637 33.2812C11.0449 33.2527 11.027 33.2235 11.0075 33.1953C10.9827 33.1598 10.9561 33.1255 10.9302 33.0907C10.9111 33.0651 10.8928 33.0388 10.8731 33.0137C10.8427 32.9752 10.8105 32.938 10.7787 32.9007C10.7614 32.8805 10.7452 32.8595 10.7275 32.8396C10.6771 32.7827 10.6251 32.7273 10.5711 32.6734C10.5209 32.6232 10.4694 32.575 10.4171 32.5279C10.4 32.5126 10.3825 32.498 10.3652 32.4832C10.3292 32.452 10.2929 32.4211 10.256 32.3915C10.2353 32.3748 10.2144 32.3587 10.1933 32.3426C10.1584 32.3156 10.1232 32.2892 10.0874 32.2635C10.0655 32.2478 10.0436 32.2322 10.0214 32.217C9.98448 32.1916 9.9471 32.1672 9.90937 32.1431C9.88832 32.1297 9.86735 32.116 9.84595 32.1029C9.80178 32.076 9.757 32.0503 9.7118 32.0252C9.6965 32.0167 9.68155 32.0077 9.66625 31.9993C9.60541 31.9666 9.54371 31.9355 9.48132 31.9061C9.46774 31.8997 9.45373 31.894 9.44007 31.8878C9.39091 31.8653 9.34141 31.8436 9.29122 31.8233C9.26939 31.8143 9.24722 31.8062 9.22514 31.7978C9.18225 31.7813 9.1392 31.7654 9.0958 31.7505C9.08489 31.7467 9.0744 31.7422 9.06349 31.7386L10.1944 30.6075ZM7.83493 37.7323C7.21446 37.7323 6.6312 37.4907 6.19249 37.052C5.75386 36.6133 5.51221 36.03 5.51221 35.4097C5.51221 34.7892 5.75386 34.2059 6.19257 33.7673C6.54303 33.4167 6.98681 33.1913 7.47596 33.1154C7.59456 33.0969 7.71564 33.0876 7.83578 33.0876C8.45617 33.0876 9.03917 33.3291 9.47745 33.7672C9.60799 33.8977 9.721 34.0423 9.81553 34.1973C10.0281 34.5461 10.1464 34.9472 10.1562 35.3573C10.1594 35.494 10.1508 35.6317 10.1294 35.7688V35.769C10.0533 36.2578 9.82799 36.7015 9.47745 37.052C9.03865 37.4907 8.45531 37.7323 7.83493 37.7323ZM13.7309 31.9563L11.2882 29.5136L12.4322 28.3696L14.8749 30.8124L13.7309 31.9563ZM18.6233 32.3731L16.5162 30.2661C16.516 30.2658 16.5158 30.2656 16.5156 30.2654L12.9792 26.7289C12.9789 26.7285 12.9785 26.7282 12.9781 26.7279L10.8715 24.6213L11.7679 23.7249L15.6433 27.6003C15.6435 27.6005 15.6435 27.6005 15.6437 27.6007C15.6439 27.6009 15.644 27.601 15.6442 27.6011L19.5197 31.4767L18.6233 32.3731ZM18.1538 27.9232L17.2845 27.0539L19.2633 25.0751L20.6793 26.0983L18.1538 27.9232ZM28.3561 27.6009L30.2381 25.7189C30.2384 25.7186 30.2386 25.7183 30.2388 25.7181L32.2319 23.725L33.1284 24.6214L31.0227 26.7272C31.022 26.7278 31.0213 26.7284 31.0207 26.729L27.4844 30.2655C27.4842 30.2656 27.484 30.2659 27.4838 30.2662L25.3767 32.3732L24.4802 31.4768L28.3561 27.6009Z" fill="#D83AFF"/>
</svg>
