<svg width="172" height="23" viewBox="0 0 172 23" fill="none" xmlns="http://www.w3.org/2000/svg">
<mask id="path-1-outside-1_52_35" maskUnits="userSpaceOnUse" x="-1" y="-1" width="174" height="25" fill="black">
<rect fill="white" x="-1" y="-1" width="174" height="25"/>
<path d="M0.848633 0.181818H8.22079L13.2918 12.5398H13.5475L18.6185 0.181818H25.9907V22H20.1952V9.38636H20.0248L15.1668 21.8295H11.6725L6.81454 9.30114H6.64409V22H0.848633V0.181818ZM33.4427 22.2557C32.3987 22.2557 31.4754 22.0852 30.6729 21.7443C29.8774 21.3963 29.2524 20.8707 28.7979 20.1676C28.3433 19.4645 28.116 18.5696 28.116 17.483C28.116 16.5881 28.2687 15.8246 28.5741 15.1925C28.8795 14.5533 29.3057 14.0312 29.8525 13.6264C30.3994 13.2216 31.0351 12.9126 31.7595 12.6996C32.491 12.4865 33.2794 12.348 34.1246 12.2841C35.0407 12.2131 35.7758 12.1278 36.3298 12.0284C36.8909 11.9219 37.2957 11.7763 37.5443 11.5916C37.7929 11.3999 37.9172 11.1477 37.9172 10.8352V10.7926C37.9172 10.3665 37.7538 10.0398 37.4271 9.8125C37.1004 9.58523 36.6814 9.47159 36.17 9.47159C35.6089 9.47159 35.1508 9.59588 34.7957 9.84446C34.4477 10.0859 34.2382 10.4588 34.1672 10.9631H28.7552C28.8263 9.96875 29.1423 9.05256 29.7034 8.21449C30.2716 7.36932 31.099 6.6946 32.1856 6.19034C33.2723 5.67898 34.6288 5.4233 36.2552 5.4233C37.4271 5.4233 38.4782 5.56179 39.4086 5.83878C40.339 6.10866 41.1309 6.48864 41.7844 6.97869C42.4378 7.46165 42.9349 8.02983 43.2758 8.68324C43.6238 9.32955 43.7979 10.0327 43.7979 10.7926V22H38.3007V19.6989H38.1729C37.8461 20.3097 37.4484 20.8033 36.9797 21.1797C36.518 21.5561 35.9889 21.8295 35.3923 22C34.8028 22.1705 34.153 22.2557 33.4427 22.2557ZM35.3604 18.5483C35.8078 18.5483 36.2268 18.456 36.6175 18.2713C37.0152 18.0866 37.3383 17.8203 37.5869 17.4723C37.8355 17.1243 37.9598 16.7017 37.9598 16.2045V14.8409C37.8035 14.9048 37.6366 14.9652 37.4591 15.022C37.2886 15.0788 37.104 15.1321 36.9051 15.1818C36.7133 15.2315 36.5074 15.2777 36.2872 15.3203C36.0741 15.3629 35.8504 15.402 35.616 15.4375C35.1615 15.5085 34.7886 15.6257 34.4974 15.7891C34.2133 15.9453 34.0003 16.1406 33.8582 16.375C33.7233 16.6023 33.6558 16.858 33.6558 17.142C33.6558 17.5966 33.8156 17.9446 34.1352 18.1861C34.4548 18.4276 34.8632 18.5483 35.3604 18.5483ZM56.3662 5.63636V9.89773H45.585V5.63636H56.3662ZM47.673 1.71591H53.5537V16.7372C53.5537 16.9645 53.5928 17.1562 53.6709 17.3125C53.749 17.4616 53.8698 17.5753 54.0331 17.6534C54.1965 17.7244 54.406 17.7599 54.6617 17.7599C54.8392 17.7599 55.0452 17.7386 55.2796 17.696C55.521 17.6534 55.6986 17.6179 55.8122 17.5895L56.6645 21.723C56.4017 21.8011 56.0253 21.897 55.5352 22.0107C55.0523 22.1243 54.477 22.1989 53.8094 22.2344C52.46 22.3054 51.3271 22.1669 50.411 21.8189C49.4948 21.4638 48.8058 20.9062 48.3442 20.1463C47.8825 19.3864 47.6588 18.4347 47.673 17.2912V1.71591ZM64.9981 12.7955V22H59.1175V0.181818H64.7851V8.74716H64.9555C65.3248 7.70312 65.9392 6.88991 66.7986 6.30753C67.6579 5.71804 68.6913 5.4233 69.8987 5.4233C71.0564 5.4233 72.0613 5.68608 72.9136 6.21165C73.773 6.73722 74.4371 7.46165 74.9058 8.38494C75.3817 9.30824 75.616 10.3665 75.6089 11.5597V22H69.7282V12.7955C69.7354 11.9858 69.5329 11.3501 69.121 10.8885C68.7162 10.4268 68.1373 10.196 67.3845 10.196C66.9086 10.196 66.4896 10.3026 66.1274 10.5156C65.7723 10.7216 65.4953 11.0199 65.2964 11.4105C65.1047 11.794 65.0052 12.2557 64.9981 12.7955ZM84.4033 22V0.181818H93.8635C95.5255 0.181818 96.9211 0.405539 98.0503 0.852983C99.1867 1.30043 100.043 1.93253 100.618 2.74929C101.2 3.56605 101.491 4.52841 101.491 5.63636C101.491 6.43892 101.314 7.17045 100.959 7.83097C100.611 8.49148 100.121 9.04545 99.4885 9.4929C98.8564 9.93324 98.1178 10.2386 97.2726 10.4091V10.6222C98.2101 10.6577 99.0624 10.8956 99.8295 11.3359C100.597 11.7692 101.207 12.3693 101.662 13.1364C102.116 13.8963 102.344 14.7912 102.344 15.821C102.344 17.0142 102.031 18.076 101.406 19.0064C100.788 19.9368 99.9076 20.6683 98.7641 21.201C97.6207 21.7337 96.257 22 94.6732 22H84.4033ZM90.3266 17.2699H93.0965C94.0908 17.2699 94.8366 17.0852 95.3337 16.7159C95.8309 16.3395 96.0795 15.7855 96.0795 15.054C96.0795 14.5426 95.9623 14.1094 95.7279 13.7543C95.4935 13.3991 95.1597 13.1293 94.7265 12.9446C94.3003 12.7599 93.7854 12.6676 93.1817 12.6676H90.3266V17.2699ZM90.3266 9.00284H92.7556C93.2741 9.00284 93.7322 8.92116 94.1299 8.75781C94.5276 8.59446 94.8366 8.36009 95.0567 8.05469C95.284 7.74219 95.3976 7.36222 95.3976 6.91477C95.3976 6.24006 95.1562 5.72514 94.6732 5.37003C94.1903 5.00781 93.5795 4.8267 92.8408 4.8267H90.3266V9.00284ZM109.087 22.2557C108.043 22.2557 107.12 22.0852 106.317 21.7443C105.522 21.3963 104.897 20.8707 104.442 20.1676C103.988 19.4645 103.761 18.5696 103.761 17.483C103.761 16.5881 103.913 15.8246 104.219 15.1925C104.524 14.5533 104.95 14.0312 105.497 13.6264C106.044 13.2216 106.68 12.9126 107.404 12.6996C108.136 12.4865 108.924 12.348 109.769 12.2841C110.685 12.2131 111.42 12.1278 111.974 12.0284C112.535 11.9219 112.94 11.7763 113.189 11.5916C113.437 11.3999 113.562 11.1477 113.562 10.8352V10.7926C113.562 10.3665 113.398 10.0398 113.072 9.8125C112.745 9.58523 112.326 9.47159 111.815 9.47159C111.253 9.47159 110.795 9.59588 110.44 9.84446C110.092 10.0859 109.883 10.4588 109.812 10.9631H104.4C104.471 9.96875 104.787 9.05256 105.348 8.21449C105.916 7.36932 106.744 6.6946 107.83 6.19034C108.917 5.67898 110.273 5.4233 111.9 5.4233C113.072 5.4233 114.123 5.56179 115.053 5.83878C115.984 6.10866 116.775 6.48864 117.429 6.97869C118.082 7.46165 118.579 8.02983 118.92 8.68324C119.268 9.32955 119.442 10.0327 119.442 10.7926V22H113.945V19.6989H113.817C113.491 20.3097 113.093 20.8033 112.624 21.1797C112.163 21.5561 111.633 21.8295 111.037 22C110.447 22.1705 109.797 22.2557 109.087 22.2557ZM111.005 18.5483C111.452 18.5483 111.871 18.456 112.262 18.2713C112.66 18.0866 112.983 17.8203 113.231 17.4723C113.48 17.1243 113.604 16.7017 113.604 16.2045V14.8409C113.448 14.9048 113.281 14.9652 113.104 15.022C112.933 15.0788 112.748 15.1321 112.55 15.1818C112.358 15.2315 112.152 15.2777 111.932 15.3203C111.719 15.3629 111.495 15.402 111.261 15.4375C110.806 15.5085 110.433 15.6257 110.142 15.7891C109.858 15.9453 109.645 16.1406 109.503 16.375C109.368 16.6023 109.3 16.858 109.3 17.142C109.3 17.5966 109.46 17.9446 109.78 18.1861C110.099 18.4276 110.508 18.5483 111.005 18.5483ZM132.011 5.63636V9.89773H121.229V5.63636H132.011ZM123.318 1.71591H129.198V16.7372C129.198 16.9645 129.237 17.1562 129.315 17.3125C129.394 17.4616 129.514 17.5753 129.678 17.6534C129.841 17.7244 130.051 17.7599 130.306 17.7599C130.484 17.7599 130.69 17.7386 130.924 17.696C131.166 17.6534 131.343 17.6179 131.457 17.5895L132.309 21.723C132.046 21.8011 131.67 21.897 131.18 22.0107C130.697 22.1243 130.122 22.1989 129.454 22.2344C128.104 22.3054 126.972 22.1669 126.055 21.8189C125.139 21.4638 124.45 20.9062 123.989 20.1463C123.527 19.3864 123.303 18.4347 123.318 17.2912V1.71591ZM144.169 5.63636V9.89773H133.388V5.63636H144.169ZM135.476 1.71591H141.356V16.7372C141.356 16.9645 141.396 17.1562 141.474 17.3125C141.552 17.4616 141.672 17.5753 141.836 17.6534C141.999 17.7244 142.209 17.7599 142.464 17.7599C142.642 17.7599 142.848 17.7386 143.082 17.696C143.324 17.6534 143.501 17.6179 143.615 17.5895L144.467 21.723C144.204 21.8011 143.828 21.897 143.338 22.0107C142.855 22.1243 142.28 22.1989 141.612 22.2344C140.263 22.3054 139.13 22.1669 138.214 21.8189C137.297 21.4638 136.609 20.9062 136.147 20.1463C135.685 19.3864 135.462 18.4347 135.476 17.2912V1.71591ZM152.801 0.181818V22H146.92V0.181818H152.801ZM163.638 22.2983C161.891 22.2983 160.385 21.9645 159.121 21.2969C157.864 20.6222 156.894 19.6562 156.213 18.3991C155.538 17.1349 155.201 15.6222 155.201 13.8608C155.201 12.1705 155.541 10.6932 156.223 9.42898C156.905 8.16477 157.867 7.18111 159.11 6.47798C160.353 5.77486 161.82 5.4233 163.51 5.4233C164.746 5.4233 165.865 5.61506 166.866 5.99858C167.867 6.3821 168.723 6.93963 169.434 7.67116C170.144 8.3956 170.691 9.27628 171.074 10.3132C171.458 11.3501 171.649 12.5185 171.649 13.8182V15.1818H157.033V11.9432H166.237C166.23 11.4744 166.11 11.0625 165.875 10.7074C165.648 10.3452 165.339 10.0646 164.948 9.86577C164.565 9.6598 164.128 9.55682 163.638 9.55682C163.162 9.55682 162.725 9.6598 162.328 9.86577C161.93 10.0646 161.61 10.3416 161.369 10.6967C161.134 11.0518 161.01 11.4673 160.996 11.9432V15.4375C160.996 15.9631 161.106 16.4318 161.326 16.8438C161.546 17.2557 161.862 17.5788 162.274 17.8132C162.686 18.0476 163.184 18.1648 163.766 18.1648C164.171 18.1648 164.54 18.108 164.874 17.9943C165.215 17.8807 165.506 17.7173 165.747 17.5043C165.989 17.2841 166.166 17.0213 166.28 16.7159H171.649C171.465 17.8523 171.028 18.8395 170.339 19.6776C169.65 20.5085 168.737 21.1548 167.601 21.6165C166.472 22.071 165.151 22.2983 163.638 22.2983Z"/>
</mask>
<path d="M0.848633 0.181818H8.22079L13.2918 12.5398H13.5475L18.6185 0.181818H25.9907V22H20.1952V9.38636H20.0248L15.1668 21.8295H11.6725L6.81454 9.30114H6.64409V22H0.848633V0.181818ZM33.4427 22.2557C32.3987 22.2557 31.4754 22.0852 30.6729 21.7443C29.8774 21.3963 29.2524 20.8707 28.7979 20.1676C28.3433 19.4645 28.116 18.5696 28.116 17.483C28.116 16.5881 28.2687 15.8246 28.5741 15.1925C28.8795 14.5533 29.3057 14.0312 29.8525 13.6264C30.3994 13.2216 31.0351 12.9126 31.7595 12.6996C32.491 12.4865 33.2794 12.348 34.1246 12.2841C35.0407 12.2131 35.7758 12.1278 36.3298 12.0284C36.8909 11.9219 37.2957 11.7763 37.5443 11.5916C37.7929 11.3999 37.9172 11.1477 37.9172 10.8352V10.7926C37.9172 10.3665 37.7538 10.0398 37.4271 9.8125C37.1004 9.58523 36.6814 9.47159 36.17 9.47159C35.6089 9.47159 35.1508 9.59588 34.7957 9.84446C34.4477 10.0859 34.2382 10.4588 34.1672 10.9631H28.7552C28.8263 9.96875 29.1423 9.05256 29.7034 8.21449C30.2716 7.36932 31.099 6.6946 32.1856 6.19034C33.2723 5.67898 34.6288 5.4233 36.2552 5.4233C37.4271 5.4233 38.4782 5.56179 39.4086 5.83878C40.339 6.10866 41.1309 6.48864 41.7844 6.97869C42.4378 7.46165 42.9349 8.02983 43.2758 8.68324C43.6238 9.32955 43.7979 10.0327 43.7979 10.7926V22H38.3007V19.6989H38.1729C37.8461 20.3097 37.4484 20.8033 36.9797 21.1797C36.518 21.5561 35.9889 21.8295 35.3923 22C34.8028 22.1705 34.153 22.2557 33.4427 22.2557ZM35.3604 18.5483C35.8078 18.5483 36.2268 18.456 36.6175 18.2713C37.0152 18.0866 37.3383 17.8203 37.5869 17.4723C37.8355 17.1243 37.9598 16.7017 37.9598 16.2045V14.8409C37.8035 14.9048 37.6366 14.9652 37.4591 15.022C37.2886 15.0788 37.104 15.1321 36.9051 15.1818C36.7133 15.2315 36.5074 15.2777 36.2872 15.3203C36.0741 15.3629 35.8504 15.402 35.616 15.4375C35.1615 15.5085 34.7886 15.6257 34.4974 15.7891C34.2133 15.9453 34.0003 16.1406 33.8582 16.375C33.7233 16.6023 33.6558 16.858 33.6558 17.142C33.6558 17.5966 33.8156 17.9446 34.1352 18.1861C34.4548 18.4276 34.8632 18.5483 35.3604 18.5483ZM56.3662 5.63636V9.89773H45.585V5.63636H56.3662ZM47.673 1.71591H53.5537V16.7372C53.5537 16.9645 53.5928 17.1562 53.6709 17.3125C53.749 17.4616 53.8698 17.5753 54.0331 17.6534C54.1965 17.7244 54.406 17.7599 54.6617 17.7599C54.8392 17.7599 55.0452 17.7386 55.2796 17.696C55.521 17.6534 55.6986 17.6179 55.8122 17.5895L56.6645 21.723C56.4017 21.8011 56.0253 21.897 55.5352 22.0107C55.0523 22.1243 54.477 22.1989 53.8094 22.2344C52.46 22.3054 51.3271 22.1669 50.411 21.8189C49.4948 21.4638 48.8058 20.9062 48.3442 20.1463C47.8825 19.3864 47.6588 18.4347 47.673 17.2912V1.71591ZM64.9981 12.7955V22H59.1175V0.181818H64.7851V8.74716H64.9555C65.3248 7.70312 65.9392 6.88991 66.7986 6.30753C67.6579 5.71804 68.6913 5.4233 69.8987 5.4233C71.0564 5.4233 72.0613 5.68608 72.9136 6.21165C73.773 6.73722 74.4371 7.46165 74.9058 8.38494C75.3817 9.30824 75.616 10.3665 75.6089 11.5597V22H69.7282V12.7955C69.7354 11.9858 69.5329 11.3501 69.121 10.8885C68.7162 10.4268 68.1373 10.196 67.3845 10.196C66.9086 10.196 66.4896 10.3026 66.1274 10.5156C65.7723 10.7216 65.4953 11.0199 65.2964 11.4105C65.1047 11.794 65.0052 12.2557 64.9981 12.7955ZM84.4033 22V0.181818H93.8635C95.5255 0.181818 96.9211 0.405539 98.0503 0.852983C99.1867 1.30043 100.043 1.93253 100.618 2.74929C101.2 3.56605 101.491 4.52841 101.491 5.63636C101.491 6.43892 101.314 7.17045 100.959 7.83097C100.611 8.49148 100.121 9.04545 99.4885 9.4929C98.8564 9.93324 98.1178 10.2386 97.2726 10.4091V10.6222C98.2101 10.6577 99.0624 10.8956 99.8295 11.3359C100.597 11.7692 101.207 12.3693 101.662 13.1364C102.116 13.8963 102.344 14.7912 102.344 15.821C102.344 17.0142 102.031 18.076 101.406 19.0064C100.788 19.9368 99.9076 20.6683 98.7641 21.201C97.6207 21.7337 96.257 22 94.6732 22H84.4033ZM90.3266 17.2699H93.0965C94.0908 17.2699 94.8366 17.0852 95.3337 16.7159C95.8309 16.3395 96.0795 15.7855 96.0795 15.054C96.0795 14.5426 95.9623 14.1094 95.7279 13.7543C95.4935 13.3991 95.1597 13.1293 94.7265 12.9446C94.3003 12.7599 93.7854 12.6676 93.1817 12.6676H90.3266V17.2699ZM90.3266 9.00284H92.7556C93.2741 9.00284 93.7322 8.92116 94.1299 8.75781C94.5276 8.59446 94.8366 8.36009 95.0567 8.05469C95.284 7.74219 95.3976 7.36222 95.3976 6.91477C95.3976 6.24006 95.1562 5.72514 94.6732 5.37003C94.1903 5.00781 93.5795 4.8267 92.8408 4.8267H90.3266V9.00284ZM109.087 22.2557C108.043 22.2557 107.12 22.0852 106.317 21.7443C105.522 21.3963 104.897 20.8707 104.442 20.1676C103.988 19.4645 103.761 18.5696 103.761 17.483C103.761 16.5881 103.913 15.8246 104.219 15.1925C104.524 14.5533 104.95 14.0312 105.497 13.6264C106.044 13.2216 106.68 12.9126 107.404 12.6996C108.136 12.4865 108.924 12.348 109.769 12.2841C110.685 12.2131 111.42 12.1278 111.974 12.0284C112.535 11.9219 112.94 11.7763 113.189 11.5916C113.437 11.3999 113.562 11.1477 113.562 10.8352V10.7926C113.562 10.3665 113.398 10.0398 113.072 9.8125C112.745 9.58523 112.326 9.47159 111.815 9.47159C111.253 9.47159 110.795 9.59588 110.44 9.84446C110.092 10.0859 109.883 10.4588 109.812 10.9631H104.4C104.471 9.96875 104.787 9.05256 105.348 8.21449C105.916 7.36932 106.744 6.6946 107.83 6.19034C108.917 5.67898 110.273 5.4233 111.9 5.4233C113.072 5.4233 114.123 5.56179 115.053 5.83878C115.984 6.10866 116.775 6.48864 117.429 6.97869C118.082 7.46165 118.579 8.02983 118.92 8.68324C119.268 9.32955 119.442 10.0327 119.442 10.7926V22H113.945V19.6989H113.817C113.491 20.3097 113.093 20.8033 112.624 21.1797C112.163 21.5561 111.633 21.8295 111.037 22C110.447 22.1705 109.797 22.2557 109.087 22.2557ZM111.005 18.5483C111.452 18.5483 111.871 18.456 112.262 18.2713C112.66 18.0866 112.983 17.8203 113.231 17.4723C113.48 17.1243 113.604 16.7017 113.604 16.2045V14.8409C113.448 14.9048 113.281 14.9652 113.104 15.022C112.933 15.0788 112.748 15.1321 112.55 15.1818C112.358 15.2315 112.152 15.2777 111.932 15.3203C111.719 15.3629 111.495 15.402 111.261 15.4375C110.806 15.5085 110.433 15.6257 110.142 15.7891C109.858 15.9453 109.645 16.1406 109.503 16.375C109.368 16.6023 109.3 16.858 109.3 17.142C109.3 17.5966 109.46 17.9446 109.78 18.1861C110.099 18.4276 110.508 18.5483 111.005 18.5483ZM132.011 5.63636V9.89773H121.229V5.63636H132.011ZM123.318 1.71591H129.198V16.7372C129.198 16.9645 129.237 17.1562 129.315 17.3125C129.394 17.4616 129.514 17.5753 129.678 17.6534C129.841 17.7244 130.051 17.7599 130.306 17.7599C130.484 17.7599 130.69 17.7386 130.924 17.696C131.166 17.6534 131.343 17.6179 131.457 17.5895L132.309 21.723C132.046 21.8011 131.67 21.897 131.18 22.0107C130.697 22.1243 130.122 22.1989 129.454 22.2344C128.104 22.3054 126.972 22.1669 126.055 21.8189C125.139 21.4638 124.45 20.9062 123.989 20.1463C123.527 19.3864 123.303 18.4347 123.318 17.2912V1.71591ZM144.169 5.63636V9.89773H133.388V5.63636H144.169ZM135.476 1.71591H141.356V16.7372C141.356 16.9645 141.396 17.1562 141.474 17.3125C141.552 17.4616 141.672 17.5753 141.836 17.6534C141.999 17.7244 142.209 17.7599 142.464 17.7599C142.642 17.7599 142.848 17.7386 143.082 17.696C143.324 17.6534 143.501 17.6179 143.615 17.5895L144.467 21.723C144.204 21.8011 143.828 21.897 143.338 22.0107C142.855 22.1243 142.28 22.1989 141.612 22.2344C140.263 22.3054 139.13 22.1669 138.214 21.8189C137.297 21.4638 136.609 20.9062 136.147 20.1463C135.685 19.3864 135.462 18.4347 135.476 17.2912V1.71591ZM152.801 0.181818V22H146.92V0.181818H152.801ZM163.638 22.2983C161.891 22.2983 160.385 21.9645 159.121 21.2969C157.864 20.6222 156.894 19.6562 156.213 18.3991C155.538 17.1349 155.201 15.6222 155.201 13.8608C155.201 12.1705 155.541 10.6932 156.223 9.42898C156.905 8.16477 157.867 7.18111 159.11 6.47798C160.353 5.77486 161.82 5.4233 163.51 5.4233C164.746 5.4233 165.865 5.61506 166.866 5.99858C167.867 6.3821 168.723 6.93963 169.434 7.67116C170.144 8.3956 170.691 9.27628 171.074 10.3132C171.458 11.3501 171.649 12.5185 171.649 13.8182V15.1818H157.033V11.9432H166.237C166.23 11.4744 166.11 11.0625 165.875 10.7074C165.648 10.3452 165.339 10.0646 164.948 9.86577C164.565 9.6598 164.128 9.55682 163.638 9.55682C163.162 9.55682 162.725 9.6598 162.328 9.86577C161.93 10.0646 161.61 10.3416 161.369 10.6967C161.134 11.0518 161.01 11.4673 160.996 11.9432V15.4375C160.996 15.9631 161.106 16.4318 161.326 16.8438C161.546 17.2557 161.862 17.5788 162.274 17.8132C162.686 18.0476 163.184 18.1648 163.766 18.1648C164.171 18.1648 164.54 18.108 164.874 17.9943C165.215 17.8807 165.506 17.7173 165.747 17.5043C165.989 17.2841 166.166 17.0213 166.28 16.7159H171.649C171.465 17.8523 171.028 18.8395 170.339 19.6776C169.65 20.5085 168.737 21.1548 167.601 21.6165C166.472 22.071 165.151 22.2983 163.638 22.2983Z" fill="url(#paint0_linear_52_35)"/>
<path d="M0.848633 0.181818V-0.818182H-0.151367V0.181818H0.848633ZM8.22079 0.181818L9.14593 -0.197809L8.89137 -0.818182H8.22079V0.181818ZM13.2918 12.5398L12.3667 12.9194L12.6212 13.5398H13.2918V12.5398ZM13.5475 12.5398V13.5398H14.2181L14.4726 12.9194L13.5475 12.5398ZM18.6185 0.181818V-0.818182H17.9479L17.6934 -0.197809L18.6185 0.181818ZM25.9907 0.181818H26.9907V-0.818182H25.9907V0.181818ZM25.9907 22V23H26.9907V22H25.9907ZM20.1952 22H19.1952V23H20.1952V22ZM20.1952 9.38636H21.1952V8.38636H20.1952V9.38636ZM20.0248 9.38636V8.38636H19.3417L19.0932 9.02269L20.0248 9.38636ZM15.1668 21.8295V22.8295H15.8499L16.0983 22.1932L15.1668 21.8295ZM11.6725 21.8295L10.7401 22.1911L10.9877 22.8295H11.6725V21.8295ZM6.81454 9.30114L7.7469 8.93961L7.49933 8.30114H6.81454V9.30114ZM6.64409 9.30114V8.30114H5.64409V9.30114H6.64409ZM6.64409 22V23H7.64409V22H6.64409ZM0.848633 22H-0.151367V23H0.848633V22ZM0.848633 1.18182H8.22079V-0.818182H0.848633V1.18182ZM7.29565 0.561444L12.3667 12.9194L14.217 12.1601L9.14593 -0.197809L7.29565 0.561444ZM13.2918 13.5398H13.5475V11.5398H13.2918V13.5398ZM14.4726 12.9194L19.5437 0.561444L17.6934 -0.197809L12.6224 12.1601L14.4726 12.9194ZM18.6185 1.18182H25.9907V-0.818182H18.6185V1.18182ZM24.9907 0.181818V22H26.9907V0.181818H24.9907ZM25.9907 21H20.1952V23H25.9907V21ZM21.1952 22V9.38636H19.1952V22H21.1952ZM20.1952 8.38636H20.0248V10.3864H20.1952V8.38636ZM19.0932 9.02269L14.2353 21.4659L16.0983 22.1932L20.9563 9.75004L19.0932 9.02269ZM15.1668 20.8295H11.6725V22.8295H15.1668V20.8295ZM12.6049 21.468L7.7469 8.93961L5.88218 9.66266L10.7401 22.1911L12.6049 21.468ZM6.81454 8.30114H6.64409V10.3011H6.81454V8.30114ZM5.64409 9.30114V22H7.64409V9.30114H5.64409ZM6.64409 21H0.848633V23H6.64409V21ZM1.84863 22V0.181818H-0.151367V22H1.84863ZM30.6729 21.7443L30.272 22.6605L30.2819 22.6647L30.6729 21.7443ZM28.7979 20.1676L27.9581 20.7105L27.9581 20.7105L28.7979 20.1676ZM28.5741 15.1925L29.4746 15.6275L29.4764 15.6236L28.5741 15.1925ZM29.8525 13.6264L30.4475 14.4302L30.4475 14.4302L29.8525 13.6264ZM31.7595 12.6996L31.4799 11.7395L31.4773 11.7402L31.7595 12.6996ZM34.1246 12.2841L34.2 13.2812L34.2018 13.2811L34.1246 12.2841ZM36.3298 12.0284L36.5065 13.0127L36.5164 13.0109L36.3298 12.0284ZM37.5443 11.5916L38.1406 12.3944L38.1479 12.3889L38.1551 12.3834L37.5443 11.5916ZM37.4271 9.8125L36.856 10.6334L36.856 10.6334L37.4271 9.8125ZM34.7957 9.84446L35.3658 10.6661L35.3692 10.6637L34.7957 9.84446ZM34.1672 10.9631V11.9631H35.0362L35.1574 11.1025L34.1672 10.9631ZM28.7552 10.9631L27.7578 10.8918L27.6813 11.9631H28.7552V10.9631ZM29.7034 8.21449L28.8735 7.65657L28.8724 7.65816L29.7034 8.21449ZM32.1856 6.19034L32.6066 7.09744L32.6114 7.09516L32.1856 6.19034ZM39.4086 5.83878L39.1233 6.79723L39.1301 6.79919L39.4086 5.83878ZM41.7844 6.97869L41.1843 7.77871L41.19 7.78287L41.7844 6.97869ZM43.2758 8.68324L42.3892 9.14584L42.3954 9.15734L43.2758 8.68324ZM43.7979 22V23H44.7979V22H43.7979ZM38.3007 22H37.3007V23H38.3007V22ZM38.3007 19.6989H39.3007V18.6989H38.3007V19.6989ZM38.1729 19.6989V18.6989H37.5737L37.2911 19.2272L38.1729 19.6989ZM36.9797 21.1797L36.3535 20.4L36.3477 20.4047L36.9797 21.1797ZM35.3923 22L35.1176 21.0385L35.1145 21.0394L35.3923 22ZM36.6175 18.2713L36.1963 17.3643L36.1901 17.3672L36.6175 18.2713ZM37.5869 17.4723L36.7732 16.8911L36.7732 16.8911L37.5869 17.4723ZM37.9598 14.8409H38.9598V13.3514L37.5812 13.9154L37.9598 14.8409ZM37.4591 15.022L37.1543 14.0695L37.1428 14.0733L37.4591 15.022ZM36.9051 15.1818L36.6626 14.2116L36.6541 14.2138L36.9051 15.1818ZM36.2872 15.3203L36.0972 14.3385L36.0911 14.3397L36.2872 15.3203ZM35.616 15.4375L35.4662 14.4488L35.4617 14.4495L35.616 15.4375ZM34.4974 15.7891L34.9794 16.6653L34.9867 16.6612L34.4974 15.7891ZM33.8582 16.375L33.003 15.8567L32.9984 15.8645L33.8582 16.375ZM34.1352 18.1861L34.738 17.3882L34.738 17.3882L34.1352 18.1861ZM33.4427 21.2557C32.5071 21.2557 31.7209 21.103 31.0638 20.8239L30.2819 22.6647C31.23 23.0674 32.2903 23.2557 33.4427 23.2557V21.2557ZM31.0737 20.8282C30.451 20.5557 29.9816 20.1567 29.6376 19.6247L27.9581 20.7105C28.5232 21.5848 29.3038 22.2369 30.272 22.6605L31.0737 20.8282ZM29.6376 19.6247C29.3147 19.1251 29.116 18.4336 29.116 17.483H27.116C27.116 18.7056 27.372 19.8039 27.9581 20.7105L29.6376 19.6247ZM29.116 17.483C29.116 16.6986 29.2501 16.092 29.4745 15.6275L27.6737 14.7574C27.2873 15.5572 27.116 16.4775 27.116 17.483H29.116ZM29.4764 15.6236C29.7144 15.1255 30.0375 14.7337 30.4475 14.4302L29.2576 12.8227C28.5738 13.3288 28.0447 13.981 27.6718 14.7614L29.4764 15.6236ZM30.4475 14.4302C30.8903 14.1024 31.4175 13.8425 32.0417 13.6589L31.4773 11.7402C30.6526 11.9828 29.9086 12.3408 29.2576 12.8227L30.4475 14.4302ZM32.0391 13.6597C32.6971 13.468 33.4164 13.3405 34.2 13.2812L34.0491 11.2869C33.1424 11.3555 32.285 11.505 31.4799 11.7395L32.0391 13.6597ZM34.2018 13.2811C35.1334 13.2089 35.9057 13.1205 36.5065 13.0127L36.1531 11.0441C35.646 11.1352 34.9481 11.2172 34.0473 11.2871L34.2018 13.2811ZM36.5164 13.0109C37.1209 12.8961 37.7072 12.7163 38.1406 12.3944L36.948 10.7889C36.8843 10.8362 36.6608 10.9477 36.1433 11.046L36.5164 13.0109ZM38.1551 12.3834C38.6478 12.0033 38.9172 11.4594 38.9172 10.8352H36.9172C36.9172 10.8468 36.916 10.8488 36.9172 10.8433C36.9185 10.8375 36.9215 10.8278 36.927 10.8165C36.9325 10.8053 36.9383 10.7974 36.9417 10.7933C36.9449 10.7895 36.9435 10.7921 36.9335 10.7998L38.1551 12.3834ZM38.9172 10.8352V10.7926H36.9172V10.8352H38.9172ZM38.9172 10.7926C38.9172 10.0664 38.6153 9.42088 37.9982 8.99159L36.856 10.6334C36.8773 10.6482 36.8879 10.6589 36.8925 10.6642C36.8969 10.6691 36.8988 10.6723 36.9002 10.6752C36.9018 10.6783 36.9172 10.709 36.9172 10.7926H38.9172ZM37.9982 8.99159C37.4618 8.61849 36.8275 8.47159 36.17 8.47159V10.4716C36.5352 10.4716 36.739 10.552 36.856 10.6334L37.9982 8.99159ZM36.17 8.47159C35.4639 8.47159 34.7888 8.62867 34.2223 9.02523L35.3692 10.6637C35.5129 10.5631 35.754 10.4716 36.17 10.4716V8.47159ZM34.2256 9.02287C33.6029 9.45498 33.2783 10.1038 33.1769 10.8236L35.1574 11.1025C35.1981 10.8138 35.2925 10.7169 35.3658 10.666L34.2256 9.02287ZM34.1672 9.96307H28.7552V11.9631H34.1672V9.96307ZM29.7527 11.0343C29.8112 10.2155 30.0688 9.46619 30.5344 8.77081L28.8724 7.65816C28.2158 8.63892 27.8413 9.72196 27.7578 10.8918L29.7527 11.0343ZM30.5333 8.7724C30.9828 8.1037 31.656 7.53853 32.6066 7.09743L31.7647 5.28325C30.5419 5.85067 29.5603 6.63493 28.8735 7.65657L30.5333 8.7724ZM32.6114 7.09516C33.5265 6.66456 34.7266 6.4233 36.2552 6.4233V4.4233C34.531 4.4233 33.0181 4.69339 31.7598 5.28552L32.6114 7.09516ZM36.2552 6.4233C37.3498 6.4233 38.3024 6.5528 39.1233 6.79721L39.694 4.88035C38.6541 4.57078 37.5044 4.4233 36.2552 4.4233V6.4233ZM39.1301 6.79919C39.9656 7.04156 40.6437 7.37317 41.1844 7.77869L42.3844 6.17869C41.6182 5.60411 40.7125 5.17577 39.6872 4.87837L39.1301 6.79919ZM41.19 7.78287C41.734 8.18497 42.1255 8.64027 42.3892 9.1458L44.1624 8.22067C43.7444 7.41939 43.1415 6.73832 42.3787 6.17452L41.19 7.78287ZM42.3954 9.15734C42.6621 9.65269 42.7979 10.1921 42.7979 10.7926H44.7979C44.7979 9.87324 44.5856 9.0064 44.1563 8.20914L42.3954 9.15734ZM42.7979 10.7926V22H44.7979V10.7926H42.7979ZM43.7979 21H38.3007V23H43.7979V21ZM39.3007 22V19.6989H37.3007V22H39.3007ZM38.3007 18.6989H38.1729V20.6989H38.3007V18.6989ZM37.2911 19.2272C37.0183 19.7371 36.7024 20.1198 36.3535 20.4L37.6058 21.9594C38.1945 21.4867 38.674 20.8822 39.0546 20.1705L37.2911 19.2272ZM36.3477 20.4047C35.9956 20.6918 35.5892 20.9037 35.1176 21.0385L35.667 22.9615C36.3886 22.7554 37.0404 22.4205 37.6116 21.9547L36.3477 20.4047ZM35.1145 21.0394C34.6282 21.18 34.0734 21.2557 33.4427 21.2557V23.2557C34.2325 23.2557 34.9774 23.1609 35.6701 22.9606L35.1145 21.0394ZM35.3604 19.5483C35.9502 19.5483 36.5158 19.4255 37.0448 19.1754L36.1901 17.3672C35.9379 17.4865 35.6654 17.5483 35.3604 17.5483V19.5483ZM37.0386 19.1783C37.589 18.9228 38.0489 18.5459 38.4006 18.0535L36.7732 16.8911C36.6277 17.0947 36.4414 17.2505 36.1963 17.3643L37.0386 19.1783ZM38.4006 18.0535C38.7892 17.5095 38.9598 16.8752 38.9598 16.2045H36.9598C36.9598 16.5282 36.8818 16.739 36.7732 16.8911L38.4006 18.0535ZM38.9598 16.2045V14.8409H36.9598V16.2045H38.9598ZM37.5812 13.9154C37.4515 13.9684 37.3094 14.02 37.1543 14.0696L37.7638 15.9744C37.9638 15.9104 38.1556 15.8413 38.3384 15.7665L37.5812 13.9154ZM37.1428 14.0733C36.9998 14.121 36.84 14.1673 36.6626 14.2117L37.1476 16.152C37.3679 16.0969 37.5775 16.0366 37.7753 15.9707L37.1428 14.0733ZM36.6541 14.2138C36.485 14.2577 36.2995 14.2994 36.0972 14.3385L36.4772 16.3021C36.7152 16.256 36.9417 16.2054 37.1561 16.1498L36.6541 14.2138ZM36.0911 14.3397C35.8947 14.379 35.6865 14.4154 35.4662 14.4488L35.7658 16.4262C36.0143 16.3886 36.2536 16.3468 36.4833 16.3009L36.0911 14.3397ZM35.4617 14.4495C34.9308 14.5324 34.4343 14.6779 34.0082 14.9169L34.9867 16.6612C35.1429 16.5736 35.3922 16.4846 35.7704 16.4255L35.4617 14.4495ZM34.0155 14.9128C33.606 15.1381 33.2513 15.447 33.003 15.8567L34.7134 16.8933C34.7492 16.8343 34.8206 16.7526 34.9793 16.6653L34.0155 14.9128ZM32.9984 15.8645C32.7648 16.2578 32.6558 16.6922 32.6558 17.142H34.6558C34.6558 17.0237 34.6817 16.9468 34.7181 16.8855L32.9984 15.8645ZM32.6558 17.142C32.6558 17.8619 32.9265 18.5262 33.5324 18.9839L34.738 17.3882C34.7047 17.363 34.6558 17.3313 34.6558 17.142H32.6558ZM33.5324 18.9839C34.0639 19.3855 34.699 19.5483 35.3604 19.5483V17.5483C35.0273 17.5483 34.8458 17.4696 34.738 17.3882L33.5324 18.9839ZM56.3662 5.63636H57.3662V4.63636H56.3662V5.63636ZM56.3662 9.89773V10.8977H57.3662V9.89773H56.3662ZM45.585 9.89773H44.585V10.8977H45.585V9.89773ZM45.585 5.63636V4.63636H44.585V5.63636H45.585ZM47.673 1.71591V0.715909H46.673V1.71591H47.673ZM53.5537 1.71591H54.5537V0.715909H53.5537V1.71591ZM53.6709 17.3125L52.7765 17.7597L52.7807 17.7682L52.7851 17.7765L53.6709 17.3125ZM54.0331 17.6534L53.6017 18.5555L53.6179 18.5633L53.6344 18.5705L54.0331 17.6534ZM55.2796 17.696L55.1058 16.7112L55.1007 16.7122L55.2796 17.696ZM55.8122 17.5895L56.7916 17.3876L56.5811 16.3665L55.5697 16.6193L55.8122 17.5895ZM56.6645 21.723L56.9495 22.6815L57.8292 22.42L57.6439 21.5211L56.6645 21.723ZM55.5352 22.0107L55.3094 21.0365L55.3062 21.0372L55.5352 22.0107ZM53.8094 22.2344L53.862 23.233L53.8625 23.233L53.8094 22.2344ZM50.411 21.8189L50.0495 22.7513L50.0559 22.7537L50.411 21.8189ZM48.3442 20.1463L47.4895 20.6655L47.4895 20.6655L48.3442 20.1463ZM47.673 17.2912L48.673 17.3036V17.2912H47.673ZM55.3662 5.63636V9.89773H57.3662V5.63636H55.3662ZM56.3662 8.89773H45.585V10.8977H56.3662V8.89773ZM46.585 9.89773V5.63636H44.585V9.89773H46.585ZM45.585 6.63636H56.3662V4.63636H45.585V6.63636ZM47.673 2.71591H53.5537V0.715909H47.673V2.71591ZM52.5537 1.71591V16.7372H54.5537V1.71591H52.5537ZM52.5537 16.7372C52.5537 17.0747 52.6112 17.4293 52.7765 17.7597L54.5653 16.8653C54.5743 16.8832 54.5537 16.8543 54.5537 16.7372H52.5537ZM52.7851 17.7765C52.9711 18.1317 53.2591 18.3917 53.6017 18.5555L54.4646 16.7513C54.4675 16.7527 54.484 16.7613 54.5054 16.7814C54.5274 16.8021 54.545 16.826 54.5567 16.8485L52.7851 17.7765ZM53.6344 18.5705C53.9658 18.7146 54.3239 18.7599 54.6617 18.7599V16.7599C54.579 16.7599 54.5197 16.7541 54.4799 16.7474C54.44 16.7406 54.4268 16.7341 54.4318 16.7363L53.6344 18.5705ZM54.6617 18.7599C54.9155 18.7599 55.1836 18.7299 55.4584 18.6799L55.1007 16.7122C54.9067 16.7474 54.7629 16.7599 54.6617 16.7599V18.7599ZM55.4533 18.6808C55.6987 18.6375 55.9052 18.597 56.0548 18.5596L55.5697 16.6193C55.492 16.6388 55.3434 16.6693 55.1058 16.7112L55.4533 18.6808ZM54.8328 17.7914L55.6851 21.9249L57.6439 21.5211L56.7916 17.3876L54.8328 17.7914ZM56.3795 20.7645C56.1461 20.8339 55.793 20.9244 55.3094 21.0365L55.7611 22.9848C56.2576 22.8697 56.6573 22.7684 56.9495 22.6815L56.3795 20.7645ZM55.3062 21.0372C54.897 21.1335 54.3836 21.2024 53.7563 21.2358L53.8625 23.233C54.5704 23.1953 55.2076 23.1151 55.7643 22.9841L55.3062 21.0372ZM53.7568 21.2358C52.4969 21.3021 51.5129 21.1678 50.766 20.8841L50.0559 22.7537C51.1414 23.166 52.423 23.3087 53.862 23.233L53.7568 21.2358ZM50.7724 20.8865C50.0388 20.6022 49.534 20.1788 49.1989 19.6271L47.4895 20.6655C48.0777 21.6337 48.9507 22.3254 50.0496 22.7513L50.7724 20.8865ZM49.1989 19.6271C48.8587 19.0671 48.6604 18.3126 48.673 17.3036L46.6731 17.2788C46.6572 18.5567 46.9064 19.7056 47.4895 20.6655L49.1989 19.6271ZM48.673 17.2912V1.71591H46.673V17.2912H48.673ZM64.9981 12.7955L63.9981 12.7823V12.7955H64.9981ZM64.9981 22V23H65.9981V22H64.9981ZM59.1175 22H58.1175V23H59.1175V22ZM59.1175 0.181818V-0.818182H58.1175V0.181818H59.1175ZM64.7851 0.181818H65.7851V-0.818182H64.7851V0.181818ZM64.7851 8.74716H63.7851V9.74716H64.7851V8.74716ZM64.9555 8.74716V9.74716H65.6625L65.8983 9.08065L64.9555 8.74716ZM66.7986 6.30753L67.3596 7.13536L67.3642 7.13217L66.7986 6.30753ZM72.9136 6.21165L72.3887 7.06282L72.3919 7.06475L72.9136 6.21165ZM74.9058 8.38494L74.0141 8.83764L74.0169 8.84306L74.9058 8.38494ZM75.6089 11.5597L74.6089 11.5537V11.5597H75.6089ZM75.6089 22V23H76.6089V22H75.6089ZM69.7282 22H68.7282V23H69.7282V22ZM69.7282 12.7955L68.7282 12.7867V12.7955H69.7282ZM69.121 10.8885L68.3691 11.5478L68.3749 11.5543L69.121 10.8885ZM66.1274 10.5156L66.6291 11.3807L66.6344 11.3776L66.1274 10.5156ZM65.2964 11.4105L64.4052 10.9568L64.402 10.9633L65.2964 11.4105ZM63.9981 12.7955V22H65.9981V12.7955H63.9981ZM64.9981 21H59.1175V23H64.9981V21ZM60.1175 22V0.181818H58.1175V22H60.1175ZM59.1175 1.18182H64.7851V-0.818182H59.1175V1.18182ZM63.7851 0.181818V8.74716H65.7851V0.181818H63.7851ZM64.7851 9.74716H64.9555V7.74716H64.7851V9.74716ZM65.8983 9.08065C66.2014 8.22365 66.6891 7.58971 67.3596 7.13535L66.2376 5.47971C65.1893 6.19011 64.4482 7.1826 64.0128 8.41367L65.8983 9.08065ZM67.3642 7.13217C68.0318 6.67422 68.8603 6.4233 69.8987 6.4233V4.4233C68.5223 4.4233 67.284 4.76186 66.2329 5.48289L67.3642 7.13217ZM69.8987 6.4233C70.9005 6.4233 71.7176 6.64895 72.3887 7.06282L73.4385 5.36048C72.4051 4.72321 71.2123 4.4233 69.8987 4.4233V6.4233ZM72.3919 7.06475C73.0887 7.49089 73.6268 8.07464 74.0141 8.83764L75.7975 7.93225C75.2473 6.84865 74.4573 5.98355 73.4354 5.35854L72.3919 7.06475ZM74.0169 8.84306C74.4085 9.60286 74.6152 10.4978 74.6089 11.5537L76.6089 11.5656C76.6168 10.2352 76.3548 9.01361 75.7947 7.92682L74.0169 8.84306ZM74.6089 11.5597V22H76.6089V11.5597H74.6089ZM75.6089 21H69.7282V23H75.6089V21ZM70.7282 22V12.7955H68.7282V22H70.7282ZM70.7282 12.8042C70.7368 11.8246 70.4904 10.9212 69.8671 10.2227L68.3749 11.5543C68.5755 11.7791 68.7339 12.147 68.7283 12.7867L70.7282 12.8042ZM69.8729 10.2292C69.236 9.50297 68.3546 9.19602 67.3845 9.19602V11.196C67.9201 11.196 68.1963 11.3507 68.3691 11.5478L69.8729 10.2292ZM67.3845 9.19602C66.7544 9.19602 66.1558 9.33875 65.6204 9.65369L66.6344 11.3776C66.8235 11.2664 67.0629 11.196 67.3845 11.196V9.19602ZM65.6257 9.65059C65.0924 9.95991 64.6854 10.4066 64.4053 10.9568L66.1876 11.8642C66.3052 11.6332 66.4522 11.4833 66.6291 11.3807L65.6257 9.65059ZM64.402 10.9633C64.1277 11.512 64.0068 12.1297 63.9982 12.7823L65.998 12.8086C66.0037 12.3817 66.0817 12.0761 66.1909 11.8577L64.402 10.9633ZM84.4033 22H83.4033V23H84.4033V22ZM84.4033 0.181818V-0.818182H83.4033V0.181818H84.4033ZM98.0503 0.852983L97.682 1.78267L97.684 1.78345L98.0503 0.852983ZM100.618 2.74929L99.8002 3.32514L99.8036 3.32986L100.618 2.74929ZM100.959 7.83097L100.078 7.35741L100.074 7.36483L100.959 7.83097ZM99.4885 9.4929L100.06 10.3134L100.066 10.3091L99.4885 9.4929ZM97.2726 10.4091L97.0749 9.42883L96.2726 9.59064V10.4091H97.2726ZM97.2726 10.6222H96.2726V11.585L97.2348 11.6214L97.2726 10.6222ZM99.8295 11.3359L99.3316 12.2032L99.3377 12.2067L99.8295 11.3359ZM101.662 13.1364L100.802 13.6462L100.804 13.6497L101.662 13.1364ZM101.406 19.0064L100.576 18.4488L100.573 18.4532L101.406 19.0064ZM98.7641 21.201L98.3418 20.2945L98.3418 20.2945L98.7641 21.201ZM90.3266 17.2699H89.3266V18.2699H90.3266V17.2699ZM95.3337 16.7159L95.9301 17.5187L95.9374 17.5132L95.3337 16.7159ZM94.7265 12.9446L94.3289 13.8622L94.3344 13.8645L94.7265 12.9446ZM90.3266 12.6676V11.6676H89.3266V12.6676H90.3266ZM90.3266 9.00284H89.3266V10.0028H90.3266V9.00284ZM94.1299 8.75781L94.5098 9.68283L94.5098 9.68283L94.1299 8.75781ZM95.0567 8.05469L94.248 7.46651L94.2456 7.46989L95.0567 8.05469ZM94.6732 5.37003L94.0732 6.17006L94.0808 6.17568L94.6732 5.37003ZM90.3266 4.8267V3.8267H89.3266V4.8267H90.3266ZM85.4033 22V0.181818H83.4033V22H85.4033ZM84.4033 1.18182H93.8635V-0.818182H84.4033V1.18182ZM93.8635 1.18182C95.4428 1.18182 96.7045 1.39536 97.682 1.78266L98.4187 -0.0766982C97.1377 -0.584283 95.6082 -0.818182 93.8635 -0.818182V1.18182ZM97.684 1.78345C98.6793 2.17535 99.3603 2.70052 99.8003 3.32513L101.435 2.17344C100.725 1.16454 99.6941 0.425498 98.4167 -0.0774856L97.684 1.78345ZM99.8036 3.32986C100.253 3.95949 100.491 4.71376 100.491 5.63636H102.491C102.491 4.34306 102.148 3.17261 101.432 2.16872L99.8036 3.32986ZM100.491 5.63636C100.491 6.28558 100.349 6.85265 100.078 7.35743L101.839 8.3045C102.278 7.48826 102.491 6.59226 102.491 5.63636H100.491ZM100.074 7.36483C99.8021 7.88086 99.4194 8.31666 98.9108 8.67669L100.066 10.3091C100.822 9.77425 101.419 9.1021 101.843 8.2971L100.074 7.36483ZM98.9169 8.67237C98.4099 9.02559 97.8019 9.28222 97.0749 9.42883L97.4703 11.3894C98.4337 11.1951 99.303 10.8409 100.06 10.3134L98.9169 8.67237ZM96.2726 10.4091V10.6222H98.2726V10.4091H96.2726ZM97.2348 11.6214C98.0206 11.6512 98.7135 11.8483 99.3316 12.2032L100.327 10.4687C99.4114 9.94286 98.3996 9.66413 97.3105 9.62288L97.2348 11.6214ZM99.3377 12.2067C99.9505 12.5528 100.435 13.0277 100.802 13.6462L102.522 12.6266C101.98 11.711 101.242 10.9856 100.321 10.4652L99.3377 12.2067ZM100.804 13.6497C101.151 14.2307 101.344 14.9421 101.344 15.821H103.344C103.344 14.6403 103.082 13.5619 102.52 12.623L100.804 13.6497ZM101.344 15.821C101.344 16.8291 101.083 17.6941 100.576 18.4488L102.236 19.564C102.979 18.4579 103.344 17.1993 103.344 15.821H101.344ZM100.573 18.4532C100.07 19.2111 99.3406 19.8293 98.3418 20.2945L99.1864 22.1075C100.475 21.5074 101.507 20.6625 102.239 19.5596L100.573 18.4532ZM98.3418 20.2945C97.3599 20.7519 96.1473 21 94.6732 21V23C96.3667 23 97.8814 22.7154 99.1864 22.1075L98.3418 20.2945ZM94.6732 21H84.4033V23H94.6732V21ZM90.3266 18.2699H93.0965V16.2699H90.3266V18.2699ZM93.0965 18.2699C94.1855 18.2699 95.1841 18.0728 95.93 17.5187L94.7374 15.9132C94.489 16.0977 93.9961 16.2699 93.0965 16.2699V18.2699ZM95.9374 17.5132C96.7293 16.9136 97.0795 16.0374 97.0795 15.054H95.0795C95.0795 15.5336 94.9325 15.7654 94.7301 15.9187L95.9374 17.5132ZM97.0795 15.054C97.0795 14.3868 96.9249 13.7525 96.5625 13.2034L94.8933 14.3051C94.9996 14.4663 95.0795 14.6984 95.0795 15.054H97.0795ZM96.5625 13.2034C96.2086 12.6672 95.7123 12.2777 95.1186 12.0247L94.3344 13.8645C94.6071 13.9808 94.7784 14.1311 94.8933 14.3051L96.5625 13.2034ZM95.1241 12.027C94.5409 11.7743 93.883 11.6676 93.1817 11.6676V13.6676C93.6878 13.6676 94.0598 13.7456 94.3289 13.8622L95.1241 12.027ZM93.1817 11.6676H90.3266V13.6676H93.1817V11.6676ZM89.3266 12.6676V17.2699H91.3266V12.6676H89.3266ZM90.3266 10.0028H92.7556V8.00284H90.3266V10.0028ZM92.7556 10.0028C93.3782 10.0028 93.9695 9.90476 94.5098 9.68283L93.75 7.83279C93.4948 7.93757 93.1699 8.00284 92.7556 8.00284V10.0028ZM94.5098 9.68283C95.0551 9.45886 95.5237 9.11692 95.8679 8.63949L94.2456 7.46989C94.1494 7.60325 94.0001 7.73006 93.75 7.83279L94.5098 9.68283ZM95.8655 8.64286C96.236 8.13344 96.3976 7.53897 96.3976 6.91477H94.3976C94.3976 7.18546 94.3321 7.35093 94.248 7.46652L95.8655 8.64286ZM96.3976 6.91477C96.3976 5.96791 96.0397 5.13359 95.2656 4.56438L94.0808 6.17568C94.2726 6.3167 94.3976 6.5122 94.3976 6.91477H96.3976ZM95.2732 4.57003C94.5814 4.05117 93.7464 3.8267 92.8408 3.8267V5.8267C93.4125 5.8267 93.7991 5.96446 94.0732 6.17003L95.2732 4.57003ZM92.8408 3.8267H90.3266V5.8267H92.8408V3.8267ZM89.3266 4.8267V9.00284H91.3266V4.8267H89.3266ZM106.317 21.7443L105.917 22.6605L105.926 22.6647L106.317 21.7443ZM104.442 20.1676L103.603 20.7105L103.603 20.7105L104.442 20.1676ZM104.219 15.1925L105.119 15.6275L105.121 15.6236L104.219 15.1925ZM105.497 13.6264L106.092 14.4302L106.092 14.4302L105.497 13.6264ZM107.404 12.6996L107.124 11.7395L107.122 11.7402L107.404 12.6996ZM109.769 12.2841L109.845 13.2812L109.846 13.2811L109.769 12.2841ZM111.974 12.0284L112.151 13.0127L112.161 13.0109L111.974 12.0284ZM113.189 11.5916L113.785 12.3944L113.792 12.3889L113.8 12.3834L113.189 11.5916ZM113.072 9.8125L112.501 10.6334L112.501 10.6334L113.072 9.8125ZM110.44 9.84446L111.01 10.6661L111.014 10.6637L110.44 9.84446ZM109.812 10.9631V11.9631H110.681L110.802 11.1025L109.812 10.9631ZM104.4 10.9631L103.402 10.8918L103.326 11.9631H104.4V10.9631ZM105.348 8.21449L104.518 7.65657L104.517 7.65816L105.348 8.21449ZM107.83 6.19034L108.251 7.09744L108.256 7.09516L107.83 6.19034ZM115.053 5.83878L114.768 6.79723L114.775 6.79919L115.053 5.83878ZM117.429 6.97869L116.829 7.77871L116.834 7.78287L117.429 6.97869ZM118.92 8.68324L118.034 9.14584L118.04 9.15734L118.92 8.68324ZM119.442 22V23H120.442V22H119.442ZM113.945 22H112.945V23H113.945V22ZM113.945 19.6989H114.945V18.6989H113.945V19.6989ZM113.817 19.6989V18.6989H113.218L112.936 19.2272L113.817 19.6989ZM112.624 21.1797L111.998 20.4L111.992 20.4047L112.624 21.1797ZM111.037 22L110.762 21.0385L110.759 21.0394L111.037 22ZM112.262 18.2713L111.841 17.3643L111.835 17.3672L112.262 18.2713ZM113.231 17.4723L112.418 16.8911L112.418 16.8911L113.231 17.4723ZM113.604 14.8409H114.604V13.3514L113.226 13.9154L113.604 14.8409ZM113.104 15.022L112.799 14.0695L112.787 14.0733L113.104 15.022ZM112.55 15.1818L112.307 14.2116L112.299 14.2138L112.55 15.1818ZM111.932 15.3203L111.742 14.3385L111.736 14.3397L111.932 15.3203ZM111.261 15.4375L111.111 14.4488L111.106 14.4495L111.261 15.4375ZM110.142 15.7891L110.624 16.6653L110.631 16.6612L110.142 15.7891ZM109.503 16.375L108.648 15.8567L108.643 15.8645L109.503 16.375ZM109.78 18.1861L110.383 17.3882L110.383 17.3882L109.78 18.1861ZM109.087 21.2557C108.152 21.2557 107.365 21.103 106.708 20.8239L105.926 22.6647C106.874 23.0674 107.935 23.2557 109.087 23.2557V21.2557ZM106.718 20.8282C106.095 20.5557 105.626 20.1567 105.282 19.6247L103.603 20.7105C104.168 21.5848 104.948 22.2369 105.917 22.6605L106.718 20.8282ZM105.282 19.6247C104.959 19.1251 104.761 18.4336 104.761 17.483H102.761C102.761 18.7056 103.016 19.8039 103.603 20.7105L105.282 19.6247ZM104.761 17.483C104.761 16.6986 104.895 16.092 105.119 15.6275L103.318 14.7574C102.932 15.5572 102.761 16.4775 102.761 17.483H104.761ZM105.121 15.6236C105.359 15.1255 105.682 14.7337 106.092 14.4302L104.902 12.8227C104.218 13.3288 103.689 13.981 103.316 14.7614L105.121 15.6236ZM106.092 14.4302C106.535 14.1024 107.062 13.8425 107.686 13.6589L107.122 11.7402C106.297 11.9828 105.553 12.3408 104.902 12.8227L106.092 14.4302ZM107.684 13.6597C108.342 13.468 109.061 13.3405 109.845 13.2812L109.694 11.2869C108.787 11.3555 107.929 11.505 107.124 11.7395L107.684 13.6597ZM109.846 13.2811C110.778 13.2089 111.55 13.1205 112.151 13.0127L111.798 11.0441C111.291 11.1352 110.593 11.2172 109.692 11.2871L109.846 13.2811ZM112.161 13.0109C112.765 12.8961 113.352 12.7163 113.785 12.3944L112.593 10.7889C112.529 10.8362 112.305 10.9477 111.788 11.046L112.161 13.0109ZM113.8 12.3834C114.292 12.0033 114.562 11.4594 114.562 10.8352H112.562C112.562 10.8468 112.561 10.8488 112.562 10.8433C112.563 10.8375 112.566 10.8278 112.572 10.8165C112.577 10.8053 112.583 10.7974 112.586 10.7933C112.589 10.7895 112.588 10.7921 112.578 10.7998L113.8 12.3834ZM114.562 10.8352V10.7926H112.562V10.8352H114.562ZM114.562 10.7926C114.562 10.0664 114.26 9.42088 113.643 8.99159L112.501 10.6334C112.522 10.6482 112.532 10.6589 112.537 10.6642C112.541 10.6691 112.543 10.6723 112.545 10.6752C112.546 10.6783 112.562 10.709 112.562 10.7926H114.562ZM113.643 8.99159C113.106 8.61849 112.472 8.47159 111.815 8.47159V10.4716C112.18 10.4716 112.384 10.552 112.501 10.6334L113.643 8.99159ZM111.815 8.47159C111.108 8.47159 110.433 8.62867 109.867 9.02523L111.014 10.6637C111.157 10.5631 111.399 10.4716 111.815 10.4716V8.47159ZM109.87 9.02287C109.247 9.45498 108.923 10.1038 108.821 10.8236L110.802 11.1025C110.843 10.8138 110.937 10.7169 111.01 10.666L109.87 9.02287ZM109.812 9.96307H104.4V11.9631H109.812V9.96307ZM105.397 11.0343C105.456 10.2155 105.713 9.46619 106.179 8.77081L104.517 7.65816C103.86 8.63892 103.486 9.72196 103.402 10.8918L105.397 11.0343ZM106.178 8.7724C106.627 8.1037 107.301 7.53853 108.251 7.09743L107.409 5.28325C106.186 5.85067 105.205 6.63493 104.518 7.65657L106.178 8.7724ZM108.256 7.09516C109.171 6.66456 110.371 6.4233 111.9 6.4233V4.4233C110.176 4.4233 108.663 4.69339 107.404 5.28552L108.256 7.09516ZM111.9 6.4233C112.994 6.4233 113.947 6.5528 114.768 6.79721L115.339 4.88035C114.299 4.57078 113.149 4.4233 111.9 4.4233V6.4233ZM114.775 6.79919C115.61 7.04156 116.288 7.37317 116.829 7.77869L118.029 6.17869C117.263 5.60411 116.357 5.17577 115.332 4.87837L114.775 6.79919ZM116.834 7.78287C117.379 8.18497 117.77 8.64027 118.034 9.1458L119.807 8.22067C119.389 7.41939 118.786 6.73832 118.023 6.17452L116.834 7.78287ZM118.04 9.15734C118.307 9.65269 118.442 10.1921 118.442 10.7926H120.442C120.442 9.87324 120.23 9.0064 119.801 8.20914L118.04 9.15734ZM118.442 10.7926V22H120.442V10.7926H118.442ZM119.442 21H113.945V23H119.442V21ZM114.945 22V19.6989H112.945V22H114.945ZM113.945 18.6989H113.817V20.6989H113.945V18.6989ZM112.936 19.2272C112.663 19.7371 112.347 20.1198 111.998 20.4L113.25 21.9594C113.839 21.4867 114.318 20.8822 114.699 20.1705L112.936 19.2272ZM111.992 20.4047C111.64 20.6918 111.234 20.9037 110.762 21.0385L111.312 22.9615C112.033 22.7554 112.685 22.4205 113.256 21.9547L111.992 20.4047ZM110.759 21.0394C110.273 21.18 109.718 21.2557 109.087 21.2557V23.2557C109.877 23.2557 110.622 23.1609 111.315 22.9606L110.759 21.0394ZM111.005 19.5483C111.595 19.5483 112.16 19.4255 112.689 19.1754L111.835 17.3672C111.582 17.4865 111.31 17.5483 111.005 17.5483V19.5483ZM112.683 19.1783C113.234 18.9228 113.693 18.5459 114.045 18.0535L112.418 16.8911C112.272 17.0947 112.086 17.2505 111.841 17.3643L112.683 19.1783ZM114.045 18.0535C114.434 17.5095 114.604 16.8752 114.604 16.2045H112.604C112.604 16.5282 112.526 16.739 112.418 16.8911L114.045 18.0535ZM114.604 16.2045V14.8409H112.604V16.2045H114.604ZM113.226 13.9154C113.096 13.9684 112.954 14.02 112.799 14.0696L113.408 15.9744C113.608 15.9104 113.8 15.8413 113.983 15.7665L113.226 13.9154ZM112.787 14.0733C112.644 14.121 112.485 14.1673 112.307 14.2117L112.792 16.152C113.012 16.0969 113.222 16.0366 113.42 15.9707L112.787 14.0733ZM112.299 14.2138C112.129 14.2577 111.944 14.2994 111.742 14.3385L112.122 16.3021C112.36 16.256 112.586 16.2054 112.801 16.1498L112.299 14.2138ZM111.736 14.3397C111.539 14.379 111.331 14.4154 111.111 14.4488L111.41 16.4262C111.659 16.3886 111.898 16.3468 112.128 16.3009L111.736 14.3397ZM111.106 14.4495C110.575 14.5324 110.079 14.6779 109.653 14.9169L110.631 16.6612C110.787 16.5736 111.037 16.4846 111.415 16.4255L111.106 14.4495ZM109.66 14.9128C109.251 15.1381 108.896 15.447 108.648 15.8567L110.358 16.8933C110.394 16.8343 110.465 16.7526 110.624 16.6653L109.66 14.9128ZM108.643 15.8645C108.409 16.2578 108.3 16.6922 108.3 17.142H110.3C110.3 17.0237 110.326 16.9468 110.363 16.8855L108.643 15.8645ZM108.3 17.142C108.3 17.8619 108.571 18.5262 109.177 18.9839L110.383 17.3882C110.349 17.363 110.3 17.3313 110.3 17.142H108.3ZM109.177 18.9839C109.708 19.3855 110.344 19.5483 111.005 19.5483V17.5483C110.672 17.5483 110.49 17.4696 110.383 17.3882L109.177 18.9839ZM132.011 5.63636H133.011V4.63636H132.011V5.63636ZM132.011 9.89773V10.8977H133.011V9.89773H132.011ZM121.229 9.89773H120.229V10.8977H121.229V9.89773ZM121.229 5.63636V4.63636H120.229V5.63636H121.229ZM123.318 1.71591V0.715909H122.318V1.71591H123.318ZM129.198 1.71591H130.198V0.715909H129.198V1.71591ZM129.315 17.3125L128.421 17.7597L128.425 17.7682L128.43 17.7765L129.315 17.3125ZM129.678 17.6534L129.246 18.5555L129.262 18.5633L129.279 18.5705L129.678 17.6534ZM130.924 17.696L130.75 16.7112L130.745 16.7122L130.924 17.696ZM131.457 17.5895L132.436 17.3876L132.226 16.3665L131.214 16.6193L131.457 17.5895ZM132.309 21.723L132.594 22.6815L133.474 22.42L133.288 21.5211L132.309 21.723ZM131.18 22.0107L130.954 21.0365L130.951 21.0372L131.18 22.0107ZM129.454 22.2344L129.506 23.233L129.507 23.233L129.454 22.2344ZM126.055 21.8189L125.694 22.7513L125.7 22.7537L126.055 21.8189ZM123.989 20.1463L123.134 20.6655L123.134 20.6655L123.989 20.1463ZM123.318 17.2912L124.318 17.3036V17.2912H123.318ZM131.011 5.63636V9.89773H133.011V5.63636H131.011ZM132.011 8.89773H121.229V10.8977H132.011V8.89773ZM122.229 9.89773V5.63636H120.229V9.89773H122.229ZM121.229 6.63636H132.011V4.63636H121.229V6.63636ZM123.318 2.71591H129.198V0.715909H123.318V2.71591ZM128.198 1.71591V16.7372H130.198V1.71591H128.198ZM128.198 16.7372C128.198 17.0747 128.256 17.4293 128.421 17.7597L130.21 16.8653C130.219 16.8832 130.198 16.8543 130.198 16.7372H128.198ZM128.43 17.7765C128.616 18.1317 128.904 18.3917 129.246 18.5555L130.109 16.7513C130.112 16.7527 130.129 16.7613 130.15 16.7814C130.172 16.8021 130.189 16.826 130.201 16.8485L128.43 17.7765ZM129.279 18.5705C129.61 18.7146 129.968 18.7599 130.306 18.7599V16.7599C130.223 16.7599 130.164 16.7541 130.124 16.7474C130.085 16.7406 130.071 16.7341 130.076 16.7363L129.279 18.5705ZM130.306 18.7599C130.56 18.7599 130.828 18.7299 131.103 18.6799L130.745 16.7122C130.551 16.7474 130.407 16.7599 130.306 16.7599V18.7599ZM131.098 18.6808C131.343 18.6375 131.55 18.597 131.699 18.5596L131.214 16.6193C131.137 16.6388 130.988 16.6693 130.75 16.7112L131.098 18.6808ZM130.477 17.7914L131.33 21.9249L133.288 21.5211L132.436 17.3876L130.477 17.7914ZM132.024 20.7645C131.791 20.8339 131.438 20.9244 130.954 21.0365L131.406 22.9848C131.902 22.8697 132.302 22.7684 132.594 22.6815L132.024 20.7645ZM130.951 21.0372C130.541 21.1335 130.028 21.2024 129.401 21.2358L129.507 23.233C130.215 23.1953 130.852 23.1151 131.409 22.9841L130.951 21.0372ZM129.401 21.2358C128.141 21.3021 127.157 21.1678 126.411 20.8841L125.7 22.7537C126.786 23.166 128.068 23.3087 129.506 23.233L129.401 21.2358ZM126.417 20.8865C125.683 20.6022 125.179 20.1788 124.843 19.6271L123.134 20.6655C123.722 21.6337 124.595 22.3254 125.694 22.7513L126.417 20.8865ZM124.843 19.6271C124.503 19.0671 124.305 18.3126 124.317 17.3036L122.318 17.2788C122.302 18.5567 122.551 19.7056 123.134 20.6655L124.843 19.6271ZM124.318 17.2912V1.71591H122.318V17.2912H124.318ZM144.169 5.63636H145.169V4.63636H144.169V5.63636ZM144.169 9.89773V10.8977H145.169V9.89773H144.169ZM133.388 9.89773H132.388V10.8977H133.388V9.89773ZM133.388 5.63636V4.63636H132.388V5.63636H133.388ZM135.476 1.71591V0.715909H134.476V1.71591H135.476ZM141.356 1.71591H142.356V0.715909H141.356V1.71591ZM141.474 17.3125L140.579 17.7597L140.583 17.7682L140.588 17.7765L141.474 17.3125ZM141.836 17.6534L141.404 18.5555L141.421 18.5633L141.437 18.5705L141.836 17.6534ZM143.082 17.696L142.909 16.7112L142.903 16.7122L143.082 17.696ZM143.615 17.5895L144.594 17.3876L144.384 16.3665L143.372 16.6193L143.615 17.5895ZM144.467 21.723L144.752 22.6815L145.632 22.42L145.447 21.5211L144.467 21.723ZM143.338 22.0107L143.112 21.0365L143.109 21.0372L143.338 22.0107ZM141.612 22.2344L141.665 23.233L141.665 23.233L141.612 22.2344ZM138.214 21.8189L137.852 22.7513L137.859 22.7537L138.214 21.8189ZM136.147 20.1463L135.292 20.6655L135.292 20.6655L136.147 20.1463ZM135.476 17.2912L136.476 17.3036V17.2912H135.476ZM143.169 5.63636V9.89773H145.169V5.63636H143.169ZM144.169 8.89773H133.388V10.8977H144.169V8.89773ZM134.388 9.89773V5.63636H132.388V9.89773H134.388ZM133.388 6.63636H144.169V4.63636H133.388V6.63636ZM135.476 2.71591H141.356V0.715909H135.476V2.71591ZM140.356 1.71591V16.7372H142.356V1.71591H140.356ZM140.356 16.7372C140.356 17.0747 140.414 17.4293 140.579 17.7597L142.368 16.8653C142.377 16.8832 142.356 16.8543 142.356 16.7372H140.356ZM140.588 17.7765C140.774 18.1317 141.062 18.3917 141.404 18.5555L142.267 16.7513C142.27 16.7527 142.287 16.7613 142.308 16.7814C142.33 16.8021 142.348 16.826 142.359 16.8485L140.588 17.7765ZM141.437 18.5705C141.769 18.7146 142.127 18.7599 142.464 18.7599V16.7599C142.382 16.7599 142.322 16.7541 142.283 16.7474C142.243 16.7406 142.229 16.7341 142.235 16.7363L141.437 18.5705ZM142.464 18.7599C142.718 18.7599 142.986 18.7299 143.261 18.6799L142.903 16.7122C142.709 16.7474 142.566 16.7599 142.464 16.7599V18.7599ZM143.256 18.6808C143.501 18.6375 143.708 18.597 143.858 18.5596L143.372 16.6193C143.295 16.6388 143.146 16.6693 142.909 16.7112L143.256 18.6808ZM142.636 17.7914L143.488 21.9249L145.447 21.5211L144.594 17.3876L142.636 17.7914ZM144.182 20.7645C143.949 20.8339 143.596 20.9244 143.112 21.0365L143.564 22.9848C144.06 22.8697 144.46 22.7684 144.752 22.6815L144.182 20.7645ZM143.109 21.0372C142.7 21.1335 142.186 21.2024 141.559 21.2358L141.665 23.233C142.373 23.1953 143.01 23.1151 143.567 22.9841L143.109 21.0372ZM141.56 21.2358C140.3 21.3021 139.316 21.1678 138.569 20.8841L137.859 22.7537C138.944 23.166 140.226 23.3087 141.665 23.233L141.56 21.2358ZM138.575 20.8865C137.842 20.6022 137.337 20.1788 137.002 19.6271L135.292 20.6655C135.88 21.6337 136.753 22.3254 137.852 22.7513L138.575 20.8865ZM137.002 19.6271C136.661 19.0671 136.463 18.3126 136.476 17.3036L134.476 17.2788C134.46 18.5567 134.709 19.7056 135.292 20.6655L137.002 19.6271ZM136.476 17.2912V1.71591H134.476V17.2912H136.476ZM152.801 0.181818H153.801V-0.818182H152.801V0.181818ZM152.801 22V23H153.801V22H152.801ZM146.92 22H145.92V23H146.92V22ZM146.92 0.181818V-0.818182H145.92V0.181818H146.92ZM151.801 0.181818V22H153.801V0.181818H151.801ZM152.801 21H146.92V23H152.801V21ZM147.92 22V0.181818H145.92V22H147.92ZM146.92 1.18182H152.801V-0.818182H146.92V1.18182ZM159.121 21.2969L158.648 22.178L158.654 22.1811L159.121 21.2969ZM156.213 18.3991L155.33 18.87L155.334 18.8759L156.213 18.3991ZM156.223 9.42898L157.103 9.90367L157.103 9.90367L156.223 9.42898ZM159.11 6.47798L159.603 7.34836L159.603 7.34836L159.11 6.47798ZM166.866 5.99858L167.224 5.06472L167.224 5.06472L166.866 5.99858ZM169.434 7.67116L168.716 8.36775L168.719 8.37124L169.434 7.67116ZM171.074 10.3132L170.136 10.6601L170.136 10.6601L171.074 10.3132ZM171.649 15.1818V16.1818H172.649V15.1818H171.649ZM157.033 15.1818H156.033V16.1818H157.033V15.1818ZM157.033 11.9432V10.9432H156.033V11.9432H157.033ZM166.237 11.9432V12.9432H167.253L167.237 11.928L166.237 11.9432ZM165.875 10.7074L165.028 11.2389L165.034 11.2486L165.041 11.2582L165.875 10.7074ZM164.948 9.86577L164.475 10.7468L164.485 10.752L164.495 10.7569L164.948 9.86577ZM162.328 9.86577L162.775 10.7602L162.781 10.757L162.788 10.7538L162.328 9.86577ZM161.369 10.6967L160.542 10.1344L160.534 10.1459L161.369 10.6967ZM160.996 11.9432L159.996 11.9133L159.996 11.9283V11.9432H160.996ZM161.326 16.8438L160.444 17.3151L160.444 17.3151L161.326 16.8438ZM162.274 17.8132L161.78 18.6824L161.78 18.6824L162.274 17.8132ZM164.874 17.9943L164.558 17.0456L164.552 17.0477L164.874 17.9943ZM165.747 17.5043L166.409 18.2541L166.415 18.2487L166.421 18.2432L165.747 17.5043ZM166.28 16.7159V15.7159H165.585L165.343 16.3672L166.28 16.7159ZM171.649 16.7159L172.636 16.8763L172.825 15.7159H171.649V16.7159ZM170.339 19.6776L171.109 20.3158L171.112 20.3126L170.339 19.6776ZM167.601 21.6165L167.975 22.5442L167.977 22.5429L167.601 21.6165ZM163.638 21.2983C162.018 21.2983 160.68 20.9891 159.588 20.4126L158.654 22.1811C160.091 22.9399 161.764 23.2983 163.638 23.2983V21.2983ZM159.594 20.4158C158.509 19.8336 157.681 19.0084 157.092 17.9224L155.334 18.8759C156.108 20.3041 157.219 21.4108 158.648 22.178L159.594 20.4158ZM157.095 17.9283C156.513 16.8386 156.201 15.4951 156.201 13.8608H154.201C154.201 15.7493 154.563 17.4313 155.33 18.87L157.095 17.9283ZM156.201 13.8608C156.201 12.3068 156.513 10.9982 157.103 9.90367L155.343 8.95429C154.57 10.3882 154.201 12.0341 154.201 13.8608H156.201ZM157.103 9.90367C157.696 8.80422 158.525 7.95817 159.603 7.34836L158.618 5.60761C157.21 6.40405 156.114 7.52533 155.343 8.95429L157.103 9.90367ZM159.603 7.34836C160.67 6.7446 161.961 6.4233 163.51 6.4233V4.4233C161.679 4.4233 160.037 4.80511 158.618 5.60761L159.603 7.34836ZM163.51 6.4233C164.642 6.4233 165.637 6.59876 166.508 6.93244L167.224 5.06472C166.092 4.63135 164.85 4.4233 163.51 4.4233V6.4233ZM166.508 6.93244C167.381 7.26672 168.112 7.7459 168.716 8.36775L170.151 6.97458C169.334 6.13336 168.354 5.49749 167.224 5.06472L166.508 6.93244ZM168.719 8.37124C169.322 8.98628 169.797 9.74336 170.136 10.6601L172.012 9.96631C171.584 8.8092 170.965 7.80491 170.148 6.97109L168.719 8.37124ZM170.136 10.6601C170.472 11.5684 170.649 12.6165 170.649 13.8182H172.649C172.649 12.4204 172.443 11.1319 172.012 9.96631L170.136 10.6601ZM170.649 13.8182V15.1818H172.649V13.8182H170.649ZM171.649 14.1818H157.033V16.1818H171.649V14.1818ZM158.033 15.1818V11.9432H156.033V15.1818H158.033ZM157.033 12.9432H166.237V10.9432H157.033V12.9432ZM167.237 11.928C167.228 11.2887 167.06 10.6868 166.71 10.1565L165.041 11.2582C165.159 11.4382 165.233 11.6601 165.238 11.9583L167.237 11.928ZM166.722 10.1759C166.396 9.65642 165.95 9.2534 165.402 8.9746L164.495 10.7569C164.728 10.8759 164.9 11.0339 165.028 11.2389L166.722 10.1759ZM165.422 8.98477C164.875 8.6913 164.272 8.55682 163.638 8.55682V10.5568C163.984 10.5568 164.255 10.6283 164.475 10.7468L165.422 8.98477ZM163.638 8.55682C163.012 8.55682 162.417 8.69363 161.868 8.97777L162.788 10.7538C163.034 10.626 163.312 10.5568 163.638 10.5568V8.55682ZM161.88 8.97134C161.336 9.24382 160.883 9.63284 160.542 10.1344L162.196 11.259C162.338 11.0504 162.524 10.8854 162.775 10.7602L161.88 8.97134ZM160.534 10.1459C160.186 10.6739 160.016 11.2746 159.996 11.9133L161.996 11.973C162.005 11.6601 162.083 11.4298 162.203 11.2476L160.534 10.1459ZM159.996 11.9432V15.4375H161.996V11.9432H159.996ZM159.996 15.4375C159.996 16.1066 160.137 16.7408 160.444 17.3151L162.208 16.3724C162.075 16.1228 161.996 15.8195 161.996 15.4375H159.996ZM160.444 17.3151C160.755 17.8961 161.206 18.3561 161.78 18.6824L162.769 16.944C162.519 16.8016 162.338 16.6152 162.208 16.3724L160.444 17.3151ZM161.78 18.6824C162.373 19.0201 163.049 19.1648 163.766 19.1648V17.1648C163.318 17.1648 162.999 17.0751 162.769 16.944L161.78 18.6824ZM163.766 19.1648C164.264 19.1648 164.744 19.0947 165.196 18.941L164.552 17.0477C164.336 17.1212 164.077 17.1648 163.766 17.1648V19.1648ZM165.19 18.943C165.644 18.7919 166.056 18.5657 166.409 18.2541L165.086 16.7544C164.956 16.869 164.786 16.9695 164.558 17.0456L165.19 18.943ZM166.421 18.2432C166.78 17.9161 167.048 17.5197 167.217 17.0646L165.343 16.3672C165.285 16.5229 165.198 16.6521 165.074 16.7653L166.421 18.2432ZM166.28 17.7159H171.649V15.7159H166.28V17.7159ZM170.662 16.5555C170.504 17.5286 170.136 18.3494 169.567 19.0425L171.112 20.3126C171.92 19.3296 172.425 18.176 172.636 16.8763L170.662 16.5555ZM169.569 19.0393C168.999 19.7268 168.229 20.2819 167.225 20.69L167.977 22.5429C169.246 22.0277 170.301 21.2903 171.109 20.3158L169.569 19.0393ZM167.228 20.6888C166.242 21.0855 165.053 21.2983 163.638 21.2983V23.2983C165.249 23.2983 166.702 23.0565 167.975 22.5441L167.228 20.6888Z" fill="black" mask="url(#path-1-outside-1_52_35)"/>
<defs>
<linearGradient id="paint0_linear_52_35" x1="-1" y1="11" x2="173" y2="11" gradientUnits="userSpaceOnUse">
<stop stop-color="#CC00FF"/>
<stop offset="1" stop-color="#A500F2"/>
</linearGradient>
</defs>
</svg>
