<svg width="65" height="65" viewBox="0 0 65 65" fill="none" xmlns="http://www.w3.org/2000/svg">
<path fill-rule="evenodd" clip-rule="evenodd" d="M48.75 18.9583V8.12501H16.25V18.9583H48.75ZM48.75 24.375H16.25V56.875H48.75V24.375ZM37.9167 40.625V37.9167H43.3334V40.625V51.4583H37.9167V40.625ZM16.25 2.70834H48.75C51.7416 2.70834 54.1667 5.13347 54.1667 8.12501V56.875C54.1667 59.8666 51.7416 62.2917 48.75 62.2917H16.25C13.2585 62.2917 10.8334 59.8666 10.8334 56.875V8.12501C10.8334 5.13347 13.2585 2.70834 16.25 2.70834ZM27.0834 51.4583H21.6667V46.0417H27.0834V51.4583ZM35.2084 51.4583H29.7917V46.0417H35.2084V51.4583ZM27.0834 43.3333H21.6667V37.9167H27.0834V43.3333ZM35.2084 43.3333H29.7917V37.9167H35.2084V43.3333ZM27.0834 35.2083H21.6667V29.7917H27.0834V35.2083ZM35.2084 35.2083H29.7917V29.7917H35.2084V35.2083ZM43.3334 35.2083H37.9167V29.7917H43.3334V35.2083Z" fill="white"/>
</svg>
